<svg xmlns="http://www.w3.org/2000/svg" width="259" height="80" viewBox="0 0 259 80"><title>Untitled</title><g fill="none" fill-rule="nonzero"><path fill="#EA0029" d="M66.937 29.5h-13.87a5.988 5.988 0 0 0-6.177 5.774v31.381h-9.305v-45.4H12.862v-9.014h24.731v9.015h29.352V29.5h-.008zM80 0H0v80h80V0z"/><path fill="#003DA6" d="M82 0h177v80H82z"/><path fill="#FFF" d="M125.61 16.9H99.78V61h7.56V42.1h17.01v-6.552h-17.01v-12.1h18.27V16.9zm35.847 0h-27.09V61h27.72v-6.552h-20.16V42.1H160.2v-6.552h-18.273v-12.1h19.53V16.9zm37.422 0h-27.09V61h27.72v-6.552h-20.16V42.1h18.27v-6.552h-18.27v-12.1h19.53V16.9zm34.272 30.681v3.087a3.571 3.571 0 0 1-3.78 3.78h-8.82a3.571 3.571 0 0 1-3.78-3.78V27.232a3.571 3.571 0 0 1 3.78-3.78h8.82a3.571 3.571 0 0 1 3.78 3.78v3.087h7.56V27.61c0-6.363-4.347-10.71-10.71-10.71h-10.08c-6.363 0-10.71 4.347-10.71 10.71v22.68c0 6.363 4.347 10.71 10.71 10.71H230c6.363 0 10.71-4.347 10.71-10.71v-2.709h-7.559z"/></g></svg>