<svg xmlns="http://www.w3.org/2000/svg" width="475" height="80">
  <path data-name="Path 209" d="M66.937 29.5h-13.87a5.988 5.988 0 00-6.177 5.774v31.381h-9.305v-45.4H12.862v-9.014h24.731v9.015h29.352V29.5zM80 0H0v80h80z" fill="#ea0029"/>
  <path data-name="Path 290" d="M82 0h177v80H82z" fill="#003da6"/>
  <path data-name="Path 302" d="M125.61 16.9H99.78V61h7.56V42.1h17.01v-6.552h-17.01v-12.1h18.27zm35.847 0h-27.09V61h27.72v-6.552h-20.16V42.1H160.2v-6.552h-18.273v-12.1h19.53zm37.422 0h-27.09V61h27.72v-6.552h-20.16V42.1h18.27v-6.552h-18.27v-12.1h19.53zm34.272 30.681v3.087a3.571 3.571 0 01-3.78 3.78h-8.82a3.571 3.571 0 01-3.78-3.78V27.232a3.571 3.571 0 013.78-3.78h8.82a3.571 3.571 0 013.78 3.78v3.087h7.56V27.61c0-6.363-4.347-10.71-10.71-10.71h-10.08c-6.363 0-10.71 4.347-10.71 10.71v22.68c0 6.363 4.347 10.71 10.71 10.71H230c6.363 0 10.71-4.347 10.71-10.71v-2.709z" fill="#fff"/>
  <path data-name="Path 241" d="M257.814 52.016h216.172v26.97H257.814z" fill="#fff" stroke="#003da6" stroke-width="2.028"/>
  <path data-name="Path 263" d="M257.8 26h128v26h-128z" fill="#fff" stroke="#003da6" stroke-width="2"/>
  <path data-name="Path 278" d="M265.88 46h6.3a2.91 2.91 0 003.06-3.06v-6.48a2.91 2.91 0 00-3.06-3.06h-6.3zm2.16-1.872v-8.856H272a1.02 1.02 0 011.08 1.08v6.7a1.02 1.02 0 01-1.08 1.076zm18-10.728h-7.74V46h7.92v-1.872h-5.76V40.6h5.22v-1.872h-5.22v-3.456h5.58zm4.86 1.872h3.24a1.02 1.02 0 011.08 1.08v1.836a1.02 1.02 0 01-1.08 1.08h-3.24zM288.74 46h2.16v-4.86h3.42a2.91 2.91 0 003.06-3.06v-1.62a2.91 2.91 0 00-3.06-3.06h-5.58zm15.3-12.6h-2.232L297.47 46h2.052l1.062-3.186h4.482L306.128 46h2.25zm.414 7.542H301.2l1.6-4.77h.072zM317.162 46h2.376l-2.592-4.95a2.887 2.887 0 002.232-2.97v-1.62a2.91 2.91 0 00-3.06-3.06h-5.76V46h2.16v-4.86h2.106zm-4.644-10.728h3.42a1.02 1.02 0 011.08 1.08v1.836a1.02 1.02 0 01-1.08 1.08h-3.42zM324.4 46h2.16V35.272h3.6V33.4h-9.36v1.872h3.6zm9.99-12.6h-2.25V46h2.16v-7.758h.09L337.772 46h.108l3.4-7.758h.09V46h2.142V33.4h-2.07l-3.49 8.01h-.072zm19.926 0h-7.74V46h7.92v-1.872h-5.76V40.6h5.22v-1.872h-5.22v-3.456h5.58zm4.858 12.6v-8.622h.072L364.214 46h2.16V33.4h-2.16v8.622h-.072l-4.968-8.622h-2.16V46zm12.78 0h2.16V35.272h3.6V33.4h-9.36v1.872h3.6z" fill="#003da6"/>
  <g style="line-height:1.25;-inkscape-font-specification:'Vafle VUT'" aria-label="OF RADIO ELECTRONICS" font-weight="400" font-size="17.765" font-family="Vafle VUT" letter-spacing="1" word-spacing="0" fill="#003da6" stroke-width=".444">
    <path d="M275.093 68.89q0 1.35-.835 2.185t-2.185.835h-3.198q-1.35 0-2.185-.835t-.835-2.186v-6.395q0-1.35.835-2.185t2.185-.835h3.198q1.35 0 2.185.835t.835 2.185zm-7.106.106q0 .48.284.782.302.284.782.284h2.842q.48 0 .764-.284.302-.302.302-.782v-6.609q0-.48-.302-.764-.284-.302-.764-.302h-2.842q-.48 0-.782.302-.284.285-.284.764zM278.236 71.91V59.473h7.284v1.847h-5.152v3.411h4.796v1.848h-4.796v5.33zM299.335 62.387q0-.48-.302-.764-.284-.302-.764-.302h-3.375v3.944h3.375q.48 0 .764-.284.302-.302.302-.782zm-2.362 4.726h-2.08v4.796h-2.13V59.474h5.684q1.35 0 2.185.835t.835 2.185v1.599q0 1.119-.604 1.9-.586.782-1.599 1.031l2.559 4.885h-2.346zM308.434 62.21l-1.582 4.707h3.216l-1.563-4.707zm-5.259 9.7l4.281-12.436h2.203l4.282 12.435h-2.22l-1.049-3.144h-4.424L305.2 71.91zM325.235 68.89q0 1.35-.834 2.185-.835.835-2.186.835h-6.218V59.474h6.218q1.35 0 2.186.835.834.835.834 2.185zm-3.197-7.569h-3.909v8.74h3.909q.48 0 .764-.283.302-.302.302-.782v-6.609q0-.48-.302-.764-.285-.302-.764-.302zM328.378 71.91V59.473h2.132v12.435zM342.884 68.89q0 1.35-.835 2.185t-2.185.835h-3.198q-1.35 0-2.185-.835t-.835-2.186v-6.395q0-1.35.835-2.185t2.185-.835h3.198q1.35 0 2.185.835t.835 2.185zm-7.106.106q0 .48.284.782.302.284.782.284h2.843q.48 0 .763-.284.303-.302.303-.782v-6.609q0-.48-.303-.764-.284-.302-.763-.302h-2.843q-.48 0-.782.302-.284.285-.284.764zM350.948 71.91V59.473h7.64v1.847h-5.508v3.411h5.152v1.848h-5.152v3.482h5.685v1.847zM363.483 59.474v10.588h5.152v1.848h-7.284V59.474zM370.957 71.91V59.473h7.639v1.847h-5.508v3.411h5.152v1.848h-5.152v3.482h5.685v1.847zM387.045 70.062q.48 0 .764-.284.302-.302.302-.782v-.87h2.131v.763q0 1.35-.835 2.186-.834.834-2.185.834h-2.842q-1.35 0-2.185-.834-.835-.835-.835-2.186v-6.395q0-1.35.835-2.185t2.185-.835h2.842q1.35 0 2.185.835t.835 2.185v.764h-2.131v-.87q0-.48-.302-.765-.285-.302-.764-.302h-2.487q-.48 0-.782.302-.284.285-.284.764v6.609q0 .48.284.782.302.284.782.284zM397.631 61.321V71.91H395.5V61.32h-3.553v-1.847h9.238v1.847zM409.815 62.387q0-.48-.302-.764-.284-.302-.764-.302h-3.375v3.944h3.375q.48 0 .764-.284.302-.302.302-.782zm-2.363 4.726h-2.078v4.796h-2.132V59.474h5.685q1.35 0 2.185.835t.835 2.185v1.599q0 1.119-.604 1.9-.586.782-1.599 1.031l2.558 4.885h-2.345zM423.959 68.89q0 1.35-.835 2.185t-2.185.835h-3.198q-1.35 0-2.185-.835t-.835-2.186v-6.395q0-1.35.835-2.185t2.185-.835h3.198q1.35 0 2.185.835t.835 2.185zm-7.106.106q0 .48.284.782.302.284.781.284h2.843q.48 0 .764-.284.302-.302.302-.782v-6.609q0-.48-.302-.764-.284-.302-.764-.302h-2.843q-.48 0-.781.302-.284.285-.284.764zM429.305 63.4h-.071v8.51h-2.132V59.473h2.132l4.903 8.51h.07v-8.51h2.133v12.435h-2.132zM439.483 71.91V59.473h2.132v12.435zM450.436 70.062q.48 0 .763-.284.302-.302.302-.782v-.87h2.132v.763q0 1.35-.835 2.186-.835.834-2.185.834h-2.842q-1.35 0-2.185-.834-.835-.835-.835-2.186v-6.395q0-1.35.835-2.185t2.185-.835h2.842q1.35 0 2.185.835t.835 2.185v.764h-2.132v-.87q0-.48-.302-.765-.284-.302-.763-.302h-2.488q-.48 0-.781.302-.285.285-.285.764v6.609q0 .48.285.782.302.284.781.284zM462.976 67.646q0-.48-.302-.764-.284-.302-.764-.302h-2.487q-1.35 0-2.185-.835t-.835-2.185v-1.066q0-1.35.835-2.185t2.185-.835H462q1.35 0 2.185.835t.835 2.185v.764h-2.132v-.87q0-.48-.302-.765-.284-.302-.763-.302H459.6q-.48 0-.782.302-.284.285-.284.764v1.28q0 .479.284.781.302.284.782.284h2.487q1.35 0 2.185.835t.835 2.185v1.137q0 1.35-.835 2.186-.835.835-2.185.835h-2.842q-1.35 0-2.186-.835-.835-.835-.835-2.186v-.763h2.132v.87q0 .48.284.782.302.284.782.284h2.487q.48 0 .764-.284.302-.302.302-.782z"/>
  </g>
</svg>
